# xmcd
#
# Track frame offsets: 
#        150
#        21352
#        41945
#        65672
#        87410
#        104255
#        125842
#        143047
#        171170
#        188337
#
# Disc length: 3163 seconds
#
# Revision: 1
# Processed by: cddbd v1.5.2PL0 Copyright (c) Steve Scherf et al.
# Submitted via: ExactAudioCopy v0.99pb5
#
DISCID=8e0c590a
DTITLE=Catfish Hodge - Bare Necessities
DYEAR=1997
DGENRE=Blues
TTITLE0=Queen Of The Greens
TTITLE1=Two Hearts
TTITLE2=Tears Fall
TTITLE3=Tongue In The Mudd
TTITLE4=Drive My Car
TTITLE5=Catch Me
TTITLE6=One Man Woman
TTITLE7=High Roller
TTITLE8=City Of Lost Angels
TTITLE9=The Goodbye Song
EXTD=
EXTT0=
EXTT1=
EXTT2=
EXTT3=
EXTT4=
EXTT5=
EXTT6=
EXTT7=
EXTT8=
EXTT9=
PLAYORDER=
